<svg viewBox="0 0 32 32" xmlns="http://www.w3.org/2000/svg"><g data-name="Layer 61"><path d="M10 20a1 1 0 0 1-1-.8L6.66 7.41A3 3 0 0 0 3.72 5H2a1 1 0 0 1 0-2h1.72a5 5 0 0 1 4.9 4L11 18.8a1 1 0 0 1-.8 1.2Z" fill="#ffffff" class="fill-101820"></path><path d="M11 27H9.14a4.14 4.14 0 0 1-.38-8.26l18.41-1.67L28.78 9H8a1 1 0 0 1 0-2h22a1 1 0 0 1 .77.37 1 1 0 0 1 .23.83l-2 10a1 1 0 0 1-.89.8L8.94 20.74a2.13 2.13 0 0 0 .2 4.26H11a1 1 0 0 1 0 2ZM26 30a4 4 0 1 1 4-4 4 4 0 0 1-4 4Zm0-6a2 2 0 1 0 2 2 2 2 0 0 0-2-2Z" fill="#ffffff" class="fill-101820"></path><path d="M14 30a4 4 0 1 1 4-4 4 4 0 0 1-4 4Zm0-6a2 2 0 1 0 2 2 2 2 0 0 0-2-2Z" fill="#ffffff" class="fill-101820"></path><path d="M23 27h-6a1 1 0 0 1 0-2h6a1 1 0 0 1 0 2Z" fill="#ffffff" class="fill-101820"></path></g></svg>